<?xml version="1.0" encoding="utf-8"?>
<!-- Generator: Adobe Illustrator 26.0.2, SVG Export Plug-In . SVG Version: 6.00 Build 0)  -->
<svg version="1.1" id="Layer_1" xmlns="http://www.w3.org/2000/svg" xmlns:xlink="http://www.w3.org/1999/xlink" x="0px" y="0px"
	 viewBox="0 0 150 150" style="enable-background:new 0 0 150 150;" xml:space="preserve">
<style type="text/css">
	.st0{fill:#B2ACA4;}
	.st1{fill:#C7C5C0;}
</style>
<g>
	<path class="st0" d="M146.97,54.51c4.09,13.9,4.09,27.77-0.32,41.61c-0.2,0.24-0.41,0.47-0.61,0.71c0.14,0.08,0.27,0.16,0.4,0.24
		c-2.11-0.37-4.03,0.39-5.94,1.06c-14.63,5.1-29.79,7.17-45.18,7.74c-11.68,0.43-23.36-0.01-34.99-1.26
		c-11.73-1.26-23.31-3.38-34.71-6.47c-8.61-2.33-16.49-6.28-24.24-10.56C-0.9,76.82-0.29,66.21,2.74,55.69
		c6.91,2.06,13.81,4.17,20.74,6.16c23.41,6.69,46.98,12.37,71.64,10.43c7.2-0.57,14.3-1.71,21.28-3.61
		C127.39,65.66,137.39,60.54,146.97,54.51z"/>
	<path class="st1" d="M146.97,54.51c-9.58,6.04-19.58,11.15-30.57,14.16c-6.98,1.91-14.08,3.05-21.28,3.61
		c-24.67,1.94-48.23-3.74-71.64-10.43c-6.93-1.98-13.83-4.1-20.74-6.16c2.24-9.18,6.26-17.5,11.99-25c0.76,0.5,1.62,0.9,2.27,1.51
		c6.31,5.91,13.81,8.17,22.34,7.7c6.3-0.35,12.58,0.15,18.82,1.16c9.64,1.57,19.33,2.59,29.1,1.58c16.26-1.69,31.73-5.72,45.2-15.56
		C139.37,35.13,144.05,44.36,146.97,54.51z"/>
	<path class="st1" d="M1.38,87.56c7.75,4.29,15.63,8.23,24.24,10.56c11.4,3.09,22.98,5.21,34.71,6.47
		c11.63,1.25,23.31,1.69,34.99,1.26c15.39-0.57,30.55-2.64,45.18-7.74c1.91-0.67,3.83-1.42,5.94-1.06
		c-3.97,12.97-11.02,24-20.97,33.2c-0.81,0.75-1.74,1.36-2.61,2.04c-1.09-0.77-2.3-0.68-3.52-0.45c-18.1,3.42-36.19,2.93-54.22-0.37
		c-12.3-2.25-24.38-5.41-35.98-10.23c-6-2.49-12.02-4.94-18.03-7.4C6.06,105.75,2.7,97.04,1.38,87.56z"/>
	<path class="st0" d="M132.46,27.09c-13.47,9.84-28.94,13.88-45.2,15.56c-9.78,1.01-19.46-0.01-29.1-1.58
		c-6.24-1.02-12.52-1.51-18.82-1.16c-8.54,0.47-16.03-1.79-22.34-7.7c-0.66-0.61-1.51-1.01-2.27-1.51
		c5.67-8.23,12.69-14.96,21.59-19.62c8.76,4.16,18.01,5.14,27.58,4.45c13.39-0.97,26.61-2.83,39.53-6.61
		c1.17-0.34,2.41-0.55,2.9-1.92C116.74,11.47,125.42,18.21,132.46,27.09z"/>
	<path class="st0" d="M11.12,113.84c6.01,2.47,12.03,4.91,18.03,7.4c11.6,4.81,23.68,7.97,35.98,10.23
		c18.03,3.3,36.12,3.79,54.22,0.37c1.22-0.23,2.43-0.32,3.52,0.45c-6.8,6.53-14.98,10.77-23.78,13.72
		c-32.29,10.81-66.92-0.9-86.2-29.02C12.2,116.01,11.34,115.09,11.12,113.84z"/>
	<path class="st1" d="M106.32,7c-0.48,1.37-1.73,1.57-2.9,1.92c-12.91,3.78-26.14,5.64-39.53,6.61c-9.57,0.69-18.81-0.29-27.58-4.45
		c7.84-5.45,16.71-8.38,25.98-9.95C77.52-1.45,92.27,0.36,106.32,7z"/>
	<path class="st1" d="M146.04,96.82c0.2-0.24,0.41-0.47,0.61-0.71C146.58,96.46,146.6,96.89,146.04,96.82z"/>
</g>
</svg>
