<?xml version="1.0" encoding="utf-8"?>
<!-- Generator: Adobe Illustrator 26.0.2, SVG Export Plug-In . SVG Version: 6.00 Build 0)  -->
<svg version="1.1" id="Layer_1" xmlns="http://www.w3.org/2000/svg" xmlns:xlink="http://www.w3.org/1999/xlink" x="0px" y="0px"
	 viewBox="0 0 150 150" style="enable-background:new 0 0 150 150;" xml:space="preserve">
<style type="text/css">
	.st0{fill:#CD6A4B;}
	.st1{fill:#B45940;}
</style>
<g>
	<path class="st0" d="M75.9,0.01c41.88,0.7,74.74,34.56,74.09,76.35c-0.65,41.68-34.91,74.39-77.12,73.63
		C32.54,149.26-0.64,114.9,0.01,74.54C0.69,32.4,34.37-0.68,75.9,0.01z M33.71,110.92c12.33,0.01,22.4-9.95,22.53-22.26
		c0.13-12.6-10.27-23.08-22.87-23.04c-12.49,0.04-22.26,10.01-22.29,22.75C11.04,101.36,20.63,110.91,33.71,110.92z M85.51,53.34
		c12.58,0.07,22.16-9.45,22.17-22c0.01-11.23-9.8-20.85-21.34-20.91c-12.6-0.07-21.91,8.8-22.01,20.96
		C64.23,43.53,73.64,53.28,85.51,53.34z M94.3,85.16c0,11.26,8.31,19.65,19.42,19.6c10.78-0.04,19.65-8.8,19.61-19.35
		c-0.04-10.42-8.98-19.67-19.08-19.76C102.91,65.56,94.3,73.98,94.3,85.16z M91.88,120.02c1.21-8.1-7.96-17.52-17.57-17.18
		c-9.69,0.34-17.14,7.69-17.31,17.69c-0.12,7.34,7,17.42,17.54,17.29C84.38,137.7,91.86,130.19,91.88,120.02z M86.95,79.16
		c-0.06-7.49-6.07-13.58-13.3-13.5c-7.19,0.08-13.47,6.2-13.48,13.13c-0.01,7.96,5.78,13.7,13.73,13.62
		C81.4,92.33,87.02,86.63,86.95,79.16z M46.45,36.95c-2.58,0.12-4.95,1.51-6.43,3.97c-1.14,1.9-2.47,3.3-4.37,4.46
		c-3.08,1.88-4.2,4.85-3.53,8.42c0.64,3.42,2.64,5.69,6.02,6.56c3.44,0.89,6.36-0.3,8.28-3.12c1.58-2.33,3.48-4.11,5.72-5.76
		c2.75-2.03,3.68-6.03,2.53-9.1C53.56,39.41,49.98,36.93,46.45,36.95z M54.02,10.48c-4.3-0.02-6.75,2.44-6.83,6.84
		c-0.08,4.48,2.49,7.19,6.82,7.2c4.16,0.01,7.12-2.74,7.17-6.69C61.24,13.45,58.36,10.5,54.02,10.48z M121,41.16
		c-4.43,0.01-7.16,2.83-7.11,7.35c0.05,4.23,3.07,6.95,7.62,6.86c3.36-0.07,6.39-3.32,6.41-6.88
		C127.96,44.27,125.01,41.15,121,41.16z M114.46,120.99c-0.05-3.3-2.56-5.74-5.88-5.7c-3.68,0.04-6.22,2.59-6.15,6.16
		c0.08,3.61,2.69,6,6.4,5.87C112.21,127.19,114.52,124.6,114.46,120.99z M42.85,128.46c2.86,0.01,5.19-2.41,5.12-5.32
		c-0.06-2.68-2.45-4.83-5.31-4.77c-2.65,0.05-5.06,2.52-5.02,5.13C37.67,126.1,40.14,128.45,42.85,128.46z"/>
	<path class="st1" d="M33.71,110.92c-13.08-0.01-22.67-9.55-22.63-22.55c0.03-12.74,9.8-22.71,22.29-22.75
		c12.6-0.04,23,10.44,22.87,23.04C56.11,100.97,46.03,110.92,33.71,110.92z"/>
	<path class="st1" d="M85.51,53.34c-11.87-0.06-21.28-9.81-21.18-21.95c0.1-12.16,9.41-21.03,22.01-20.96
		c11.54,0.07,21.35,9.68,21.34,20.91C107.67,43.9,98.09,53.41,85.51,53.34z"/>
	<path class="st1" d="M94.3,85.16c0-11.17,8.61-19.6,19.95-19.5c10.1,0.08,19.04,9.34,19.08,19.76
		c0.04,10.55-8.83,19.31-19.61,19.35C102.61,104.8,94.3,96.42,94.3,85.16z"/>
	<path class="st1" d="M91.88,120.02c-0.03,10.17-7.51,17.68-17.34,17.8c-10.53,0.13-17.66-9.95-17.54-17.29
		c0.17-9.99,7.61-17.34,17.31-17.69C83.93,102.5,93.09,111.92,91.88,120.02z"/>
	<path class="st1" d="M86.95,79.16c0.06,7.47-5.55,13.18-13.05,13.25c-7.95,0.08-13.74-5.66-13.73-13.62
		c0.01-6.94,6.28-13.05,13.48-13.13C80.88,65.57,86.89,71.67,86.95,79.16z"/>
	<path class="st1" d="M46.45,36.95c3.53-0.02,7.11,2.46,8.23,5.43c1.15,3.07,0.22,7.07-2.53,9.1c-2.24,1.65-4.14,3.43-5.72,5.76
		c-1.92,2.83-4.84,4.01-8.28,3.12c-3.38-0.87-5.38-3.14-6.02-6.56c-0.67-3.57,0.45-6.54,3.53-8.42c1.9-1.16,3.23-2.56,4.37-4.46
		C41.51,38.46,43.87,37.07,46.45,36.95z"/>
	<path class="st1" d="M54.02,10.48c4.34,0.02,7.22,2.98,7.16,7.36c-0.05,3.94-3.01,6.7-7.17,6.69c-4.33-0.01-6.9-2.72-6.82-7.2
		C47.27,12.92,49.72,10.46,54.02,10.48z"/>
	<path class="st1" d="M121,41.16c4-0.01,6.95,3.11,6.92,7.33c-0.02,3.56-3.05,6.81-6.41,6.88c-4.55,0.09-7.57-2.63-7.62-6.86
		C113.85,43.99,116.58,41.17,121,41.16z"/>
	<path class="st1" d="M114.46,120.99c0.06,3.61-2.25,6.2-5.63,6.32c-3.71,0.13-6.32-2.26-6.4-5.87c-0.08-3.57,2.47-6.12,6.15-6.16
		C111.9,115.25,114.41,117.69,114.46,120.99z"/>
	<path class="st1" d="M42.85,128.46c-2.7-0.01-5.17-2.36-5.21-4.96c-0.04-2.62,2.37-5.08,5.02-5.13c2.86-0.06,5.25,2.09,5.31,4.77
		C48.03,126.05,45.71,128.47,42.85,128.46z"/>
</g>
</svg>
