<?xml version="1.0" encoding="utf-8"?>
<!-- Generator: Adobe Illustrator 26.0.2, SVG Export Plug-In . SVG Version: 6.00 Build 0)  -->
<svg version="1.1" id="Layer_1" xmlns="http://www.w3.org/2000/svg" xmlns:xlink="http://www.w3.org/1999/xlink" x="0px" y="0px"
	 viewBox="0 0 150 150" style="enable-background:new 0 0 150 150;" xml:space="preserve">
<style type="text/css">
	.st0{fill:#8EC8D0;}
	.st1{fill:#A4D1D6;}
</style>
<g>
	<path class="st0" d="M29.83,15.26c10.3-8.05,21.99-12.73,34.9-14.47c-0.12,3.45,2.03,6.07,3.2,9.06
		c4.22,10.77,8.73,21.43,11.66,32.67c3.13,12.03,4.96,24.23,5.31,36.64c0.2,7.12-0.33,14.19-1.14,21.28
		c-1.55,13.48-4.33,26.62-9.3,39.3c-1.29,3.29-3.16,6.41-3.61,10.01c-12.08-0.54-23.33-3.83-33.66-10.15
		c0.22-0.78,0.35-1.6,0.68-2.34c5.38-11.93,6.28-24.67,6.65-37.47c0.18-6.08-0.6-12.13-1.13-18.19c-1.35-15.4-4.39-30.51-7.8-45.54
		C33.99,29.06,31.77,22.19,29.83,15.26z"/>
	<path class="st1" d="M70.85,149.76c0.45-3.6,2.32-6.72,3.61-10.01c4.98-12.67,7.76-25.81,9.3-39.3c0.81-7.09,1.34-14.16,1.14-21.28
		c-0.35-12.42-2.18-24.62-5.31-36.64c-2.92-11.24-7.44-21.9-11.66-32.67c-1.17-3-3.32-5.62-3.2-9.06c9.14-1.4,18.21-0.89,27.2,1.15
		c1.16,0.26,2.25,0.82,3.37,1.24c1.36,6.88,3.99,13.4,5.67,20.22c2.97,12.06,4.91,24.31,6.92,36.51c2.48,15.08,4,30.32,3.38,45.7
		c-0.22,5.4-0.88,10.72-1.62,16.04c-1.06,7.56-3.31,14.85-5.79,22.06c-0.48,0.37-0.9,0.86-1.44,1.08
		C92.27,148.78,81.79,150.72,70.85,149.76z"/>
	<path class="st0" d="M103.86,143.71c2.47-7.21,4.73-14.5,5.79-22.06c0.74-5.32,1.4-10.64,1.62-16.04
		c0.62-15.38-0.9-30.63-3.38-45.7c-2.01-12.2-3.95-24.44-6.92-36.51c-1.68-6.82-4.31-13.34-5.67-20.22
		c6.45,1.03,12.11,4.05,17.64,7.27c10.07,5.87,18.41,13.62,24.6,23.58c-0.14,5.08,1.06,10.07,1.12,15.12
		c0.16,12.06,0.34,24.12-1.15,36.13c-1.63,13.25-3.17,26.52-6.77,39.43c-2.25,3.32-5.31,5.86-8.4,8.28
		C116.71,137.42,110.98,141.78,103.86,143.71z"/>
	<path class="st1" d="M29.83,15.26c1.94,6.93,4.16,13.8,5.75,20.81c3.42,15.03,6.45,30.14,7.8,45.54
		c0.53,6.06,1.31,12.11,1.13,18.19c-0.37,12.8-1.27,25.54-6.65,37.47c-0.33,0.73-0.46,1.56-0.68,2.34
		c-10.28-5.59-18.53-13.32-24.64-23.32c1.08-0.5,1.74-1.29,2-2.5c2.1-9.7,4.39-19.33,5.1-29.3c0.72-10.08,0.68-20.05-1.24-29.97
		c-0.58-2.99-1.37-5.93-1.93-8.93c-0.75-4.02-2.19-7.75-4.34-11.23C16.55,26.62,22.54,20.34,29.83,15.26z"/>
	<path class="st0" d="M12.14,34.37c2.14,3.47,3.59,7.2,4.34,11.23c0.56,2.99,1.35,5.94,1.93,8.93c1.92,9.93,1.96,19.9,1.24,29.97
		c-0.71,9.97-3,19.6-5.1,29.3c-0.26,1.21-0.92,2-2,2.5c-0.7-0.98-1.47-1.92-2.09-2.95c-3.94-6.55-6.62-13.62-8.64-20.95
		c-0.08-0.41-0.16-0.82-0.24-1.22c-0.14-0.61-0.27-1.22-0.41-1.82c-1.23-9.08-1.82-18.15-0.12-27.26
		C2.91,52.1,6.19,42.71,12.14,34.37z"/>
	<path class="st1" d="M148.59,89.98c-2.56,11.23-7.08,21.57-14.14,30.73c-1.11,1.44-2.1,3-3.7,3.99c3.6-12.91,5.14-26.18,6.77-39.43
		c1.48-12.01,1.31-24.08,1.15-36.13c-0.07-5.04-1.27-10.04-1.12-15.12c6.91,9.67,10.41,20.6,11.95,32.26
		C150.54,74.24,149.83,82.12,148.59,89.98z"/>
</g>
</svg>
