<?xml version="1.0" encoding="utf-8"?>
<!-- Generator: Adobe Illustrator 26.0.2, SVG Export Plug-In . SVG Version: 6.00 Build 0)  -->
<svg version="1.1" id="Layer_1" xmlns="http://www.w3.org/2000/svg" xmlns:xlink="http://www.w3.org/1999/xlink" x="0px" y="0px"
	 viewBox="0 0 150 92.9" style="enable-background:new 0 0 150 92.9;" xml:space="preserve">
<style type="text/css">
	.st0{fill:#DFBA6A;}
	.st1{fill:#EADC8F;}
	.st2{fill:#F0EBBD;}
	.st3{fill:#3B4F60;}
</style>
<g>
	<path class="st0" d="M138.3,22.2l0.1,0c1.7,0.8,3.4,1.5,5.1,2.3l-0.1,0c0.8,0.7,1.7,1.5,2.7,1.9c0.1,0.4,0.4,0.6,0.8,0.7
		c0.9,1.2,1.7,2.4,2.6,3.5l0-0.1c0.1,1.8,0.7,3.4,0.3,5.2c-0.8,3.6-2.8,6.4-5.3,9c-5.3,5.4-11.6,9.3-18.3,12.8
		c-3.2,1.7-6.6,3.2-9.9,4.8c-5.7,2.1-11.3,4.4-17.1,6.1c-7,2.1-14.1,4-21.3,5.4c-5.9,1.2-11.8,2.1-17.7,3.1
		c-2.4,0.4-4.8-0.2-7.1,0.7c-1.4,0.1-2.8,0.2-4.2,0.3c-0.6-0.4-1.3-0.4-1.9,0.1c-2.4,0.1-4.8,0.2-7.2,0.3c-0.1-0.1-0.3-0.1-0.4-0.2
		c-0.3,0.1-0.6,0.2-0.9,0.3c-1.1-0.1-2.3-0.1-3.4-0.2c-11.6-0.5-23.2-1-32.9-8.7c-0.1-0.2-0.3-0.3-0.4-0.5c-0.1-0.2-0.2-0.4-0.4-0.6
		c-0.1-0.1-0.2-0.3-0.3-0.4l0-0.1c0-0.3,0-0.6-0.3-0.7l0-0.1c-0.1-0.2-0.2-0.5-0.3-0.7l0-0.1c-1.4-4.1-0.2-7.6,2.2-10.9
		c4.2-5.8,9.9-9.7,15.9-13.2c2.5-1.5,5-3.2,7.9-4c0.1,0.2,0.1,0.3,0.2,0.5c-0.5,3.4-0.5,6.8-0.6,10.2c-0.4-0.1-0.7-0.1-1.1,0.1
		c-5,2.2-10,4.6-14.3,8c-1.4,1.1-2.7,2.3-3.5,3.9c-0.7,1.6-0.5,2.9,0.8,4.1c0.9,0.8,2,1.3,3.1,1.7c3.7,1.3,7.5,1.7,11.3,1.7
		c0.2,0,0.4,0,0.5,0c0.3,0,0.6,0,1,0l0.1,0.1l0.1,0c2.2,0.3,4.5,0.3,6.7,0l0.1,0v-0.1c0.1-0.2,0.2-0.3,0.3-0.5
		c2.2,0.9,4.4,0.3,6.6,0.2c6.3-0.4,12.7-1.2,18.9-2.2c3.5-0.6,7-0.9,10.4-1.9c0.6,0,1.2-0.1,1.8-0.1c0.3-0.1,0.6-0.2,0.8-0.2
		c0.5-0.1,1-0.1,1.4-0.2c0.3,0.1,0.6,0,0.8-0.2c11.9-2.5,23.6-5.4,35.2-9.2c4-1.3,8.1-2.4,11.8-4.4c2.1-0.2,3.9-1.3,5.8-2.2
		c5.2-2.2,10.2-4.7,14.6-8.3c1.4-1.2,2.9-2.4,3.3-4.4c0.2-0.4,0.3-0.8,0.1-1.2c0.1-0.8-0.2-1.4-0.9-1.8c-0.2-0.2-0.4-0.4-0.6-0.6
		c-0.3-0.4-0.6-0.6-1.1-0.7l-0.1,0c-0.9-0.7-1.9-1-3-1.1c-0.4-0.1-0.9-0.2-1.3-0.3c-0.1,0-0.2,0-0.4-0.1c-0.3,0-0.6,0-0.9-0.1
		c-0.8-0.5-1.6-0.5-2.5-0.4c-1.3-0.4-2.7-0.4-4.1-0.3c-2.8-0.5-5.6-0.3-8.4-0.2c-0.9,0-1.8-0.2-2.8,0.2c-0.4,0-0.8-0.1-1.3-0.1
		c-0.6-0.4-0.7-1-1-1.5c-1.3-2.3-2.2-4.8-4.1-6.7c-0.1-0.4-0.3-0.9-0.4-1.3C119.7,18.7,129.1,19.5,138.3,22.2z"/>
	<path class="st1" d="M26.8,39c-0.1-0.2-0.1-0.3-0.2-0.5c0.5-1.7,1.1-3.4,1.5-5.2c0.4-1.7,1-3.2,1.8-4.7c0.8,0.1,1.6,0.1,2.4,0.2
		c7,1.1,14.1,1.8,21.2,1.3c6.2-0.4,12.3-1.3,18-3.9c7.7-3.5,14-8.5,18.5-15.9c1.1-1.8,1.4-4.1,3.1-5.5c0.6,0.2,1.2,0.4,1.8,0.7
		c0.3,0.5,0.9,0.7,1.4,1l0.1,0c0.3,0.2,0.6,0.3,0.9,0.5l0.1,0c0.3,0.4,0.6,0.6,1.1,0.7c0,0.1,0.1,0.2,0.2,0.1c0.7,0.5,1.3,1,2,1.5
		l0,0c0.7,0.7,1.4,1.3,2.3,1.7l-0.1-0.1l-0.1,0c0.6,1.2,1.9,1.7,2.8,2.6l0,0c0.5,0.8,1.1,1.5,1.9,2l0-0.1c0,0.3,0.2,0.5,0.5,0.7
		L108,16c0.1,0.3,0.3,0.6,0.7,0.5l-0.1-0.1l-0.1,0.1c0.3,0.6,0.7,1.2,1.2,1.5l-0.1,0c0.2,0.3,0.4,0.5,0.5,0.8
		c0.1,0.4,0.3,0.9,0.4,1.3c-3.1,1.9-6.2,3.9-9.4,5.7c-9.4,5.4-19.5,9.1-30,11.8c-1.9,0.5-3.8,1-5.7,1.2c-5,0.7-10,1.4-15,1.7
		c-6.7,0.4-13.2,0.2-19.8-1C29.4,39.4,28.2,38.7,26.8,39z"/>
	<path class="st2" d="M93.1,4.8c-1.7,1.5-2,3.7-3.1,5.5c-4.4,7.4-10.7,12.5-18.4,15.9c-5.7,2.6-11.8,3.5-18,3.9
		c-7.1,0.4-14.2-0.2-21.2-1.3c-0.8-0.1-1.6-0.1-2.5-0.2c1.1-3.3,2.8-6.3,5-9c0.5,0.7,1.3,0.7,2.1,0.7c5.4-0.2,10.8-1.4,16-2.8
		c3.7-1,7.3-2.4,10.8-4C69.1,11,74.1,8,78.8,4.5C80,3.6,81.8,2.9,82.1,1C85.9,1.7,89.6,3,93.1,4.8z"/>
	<path class="st1" d="M82.1,1c-0.3,1.9-2,2.6-3.2,3.5c-4.7,3.5-9.7,6.5-15.1,8.9c-3.5,1.6-7.1,3-10.8,4c-5.2,1.4-10.5,2.5-16,2.8
		c-0.8,0-1.5,0-2.1-0.7c3.5-5.2,8-9.4,13.3-12.6C58.7,0.5,70-1.4,82.1,1z"/>
	<path class="st2" d="M26.8,39c1.4-0.2,2.6,0.4,3.9,0.6c6.5,1.1,13.1,1.4,19.8,1c5-0.3,10-1,15-1.7c1.9-0.3,3.8-0.8,5.7-1.2
		c10.5-2.7,20.6-6.4,30-11.8c3.2-1.8,6.2-3.8,9.4-5.7c1.9,1.9,2.8,4.5,4.1,6.7c0.3,0.5,0.4,1.2,1,1.5c0,0.4,0,0.7,0.4,1
		c0.3,1,0.7,2,1,3c1.7,5.7,2.4,11.6,2.1,17.5c-3.8,2-7.8,3.1-11.8,4.4c-11.5,3.8-23.3,6.7-35.2,9.2c-0.4-0.2-0.6-0.1-0.8,0.2
		c-0.5,0.1-1,0.1-1.4,0.2c-0.4-0.3-0.6-0.1-0.8,0.2c-0.6,0-1.2,0.1-1.8,0.1c-2.6-0.8-5.2-0.7-7.8-1.1c-10.2-1.5-20-4.2-29.3-8.5
		c-1.1-0.5-2-1.6-3.5-1.3c-0.6-1.4-0.3-2.8-0.4-4.2C26.3,45.8,26.3,42.4,26.8,39z"/>
	<path class="st2" d="M114.7,66.6c-7.4,15.1-19.4,24-36,26.3c-15.1,2-28.1-2.6-39-13.3c-0.4-0.3-0.7-0.8-1-1.1
		c0.3-0.1,0.6-0.2,0.9-0.3c0.1,0.1,0.3,0.1,0.4,0.2c2.4-0.1,4.8-0.2,7.2-0.3c0.6,0.4,1.3,0.4,1.9-0.1c1.4-0.1,2.8-0.2,4.2-0.3
		c3.9,0.7,7.8,0.5,11.7,0.7c9.7,0.4,19.4-0.2,28.9-2.7c4.1-1.1,8.1-2.5,11.9-4.3C108.8,69.9,111.7,68.2,114.7,66.6z"/>
	<path class="st1" d="M26.7,53.4c1.4-0.3,2.3,0.8,3.5,1.3c9.3,4.3,19.2,7,29.3,8.5c2.6,0.4,5.3,0.3,7.8,1.1c-3.4,1-6.9,1.4-10.4,1.9
		c-6.3,1-12.6,1.8-18.9,2.2c-2.2,0.1-4.4,0.7-6.6-0.2C29,63.5,27.4,58.6,26.7,53.4z"/>
	<path class="st1" d="M114.7,66.6c-3,1.6-5.9,3.2-9,4.7c-3.8,1.8-7.8,3.3-11.9,4.3c-9.5,2.5-19.2,3.1-28.9,2.7
		c-3.9-0.2-7.8,0.1-11.7-0.7c2.3-0.9,4.7-0.3,7.1-0.7c5.9-1,11.8-1.9,17.7-3.1c7.2-1.5,14.2-3.4,21.3-5.4c5.8-1.7,11.4-4,17.1-6.1
		C116,63.9,115.4,65.3,114.7,66.6z"/>
	<path class="st1" d="M49.1,78.1c-0.6,0.5-1.2,0.5-1.9,0.1C47.8,77.6,48.4,77.6,49.1,78.1z"/>
	<path class="st1" d="M71.4,63.8c0.2-0.3,0.5-0.5,0.8-0.2C72,63.8,71.7,63.9,71.4,63.8z"/>
	<path class="st1" d="M69.1,64.2c0.2-0.3,0.4-0.5,0.8-0.2C69.7,64.1,69.4,64.1,69.1,64.2z"/>
	<path class="st0" d="M1.3,68.1c-0.1-0.2-0.2-0.5-0.3-0.7C1.3,67.6,1.3,67.8,1.3,68.1z"/>
	<path class="st0" d="M22.6,68.7c0.2,0,0.4,0,0.5,0C23,68.7,22.8,68.7,22.6,68.7z"/>
	<path class="st0" d="M2.4,69.6c-0.1-0.2-0.3-0.3-0.4-0.5C2.1,69.3,2.3,69.5,2.4,69.6z"/>
	<path class="st0" d="M0.9,67.3c-0.1-0.2-0.2-0.5-0.3-0.7C0.7,66.9,0.8,67.1,0.9,67.3z"/>
	<path class="st0" d="M1.6,68.5c-0.1-0.1-0.2-0.3-0.3-0.4C1.4,68.3,1.5,68.4,1.6,68.5z"/>
	<path class="st0" d="M24.1,68.7c0.1-0.1,0.1,0,0.2,0L24.1,68.7L24.1,68.7z"/>
	<path class="st1" d="M40,78.4c-0.1-0.1-0.3-0.1-0.4-0.2C39.7,78.3,39.8,78.3,40,78.4z"/>
	<polygon class="st3" points="31,68.7 31.1,68.7 31.1,68.8 	"/>
</g>
</svg>
