<?xml version="1.0" encoding="utf-8"?>
<!-- Generator: Adobe Illustrator 26.0.2, SVG Export Plug-In . SVG Version: 6.00 Build 0)  -->
<svg version="1.1" id="Layer_1" xmlns="http://www.w3.org/2000/svg" xmlns:xlink="http://www.w3.org/1999/xlink" x="0px" y="0px"
	 viewBox="0 0 150 150" style="enable-background:new 0 0 150 150;" xml:space="preserve">
<style type="text/css">
	.st0{fill:#99CDD8;}
	.st1{fill:#83B987;}
</style>
<g>
	<path class="st0" d="M44.16,6.83c19.53-8.69,39.21-9.12,59.05-1.11c-1.48,1.26-3.11,2.27-4.83,3.17c-3.62,1.89-6.96,4.16-9.79,7.16
		c-3.06,3.25-4.2,7.01-2.84,11.22c1.34,4.15,0.71,7.56-2.59,10.47c-0.76,0.67-1.36,1.51-2,2.3c-2.37,2.95-1.71,5.48,1.87,6.49
		c11.13,3.14,20.87,0.47,28.59-7.98c4.12-4.51,8.57-5.79,14.18-4.35c2.26,0.58,4.51,1.22,6.79,1.77c2.03,0.49,4.04,0.44,5.96-0.47
		c8.66,13.46,12.33,28.3,11.29,44.14c-1.15,17.62-7.8,33.11-19.76,46.21c-1.16,1.27-2.48,2.39-3.73,3.58
		c-1.23-2.12-0.33-4.17,0.25-6.2c1.51-5.27,3.76-10.34,4.24-15.9c0.39-4.54-1.11-8.21-4.62-11.03c-1.58-1.28-3.26-2.44-4.96-3.55
		c-3.4-2.22-5.58-5.29-6.65-9.18c-0.46-1.67-0.99-3.32-1.5-4.97c-1.45-4.74-5.11-6.79-9.62-7.24c-13.7-1.36-26.41,5.84-31.83,18.45
		c-2.98,6.93-7.54,11.65-14.66,14.08c-3.26,1.11-6.52,2.26-9.6,3.91c-6.98,3.73-9.24,10.87-5.54,17.87
		c1.33,2.52,3.33,4.34,5.73,5.79c3.85,2.32,8.04,3.31,12.53,3.35c3.04,0.03,6.41-0.18,8.55,2.42c3.04,3.7,5.19,7.97,6.36,12.66
		c-55.42-0.01-91.98-58.08-67-108.3c2.69,2.39,6,3.31,9.43,3.93c7.24,1.32,14.38,0.07,21.53-0.85c2.67-0.35,3.79-2.17,3.75-4.74
		c-0.04-2.65-0.28-5.29-0.96-7.85c-0.72-2.71-0.57-5.42,1.02-7.63C46.83,18.77,46.82,12.94,44.16,6.83z"/>
	<path class="st1" d="M75.01,149.86c-1.17-4.7-3.32-8.96-6.36-12.66c-2.14-2.6-5.51-2.39-8.55-2.42c-4.49-0.04-8.68-1.03-12.53-3.35
		c-2.4-1.44-4.39-3.27-5.73-5.79c-3.71-7-1.45-14.14,5.54-17.87c3.08-1.64,6.34-2.79,9.6-3.91c7.12-2.43,11.68-7.15,14.66-14.08
		c5.42-12.61,18.13-19.81,31.83-18.45c4.52,0.45,8.17,2.5,9.62,7.24c0.51,1.65,1.04,3.3,1.5,4.97c1.07,3.9,3.25,6.96,6.65,9.18
		c1.7,1.11,3.38,2.28,4.96,3.55c3.51,2.83,5.01,6.49,4.62,11.03c-0.48,5.56-2.73,10.63-4.24,15.9c-0.58,2.03-1.47,4.08-0.25,6.2
		c-11.06,11.02-24.54,17.2-39.79,19.73C82.75,149.78,78.89,150.25,75.01,149.86z"/>
	<path class="st1" d="M138.54,35.49c-1.93,0.91-3.94,0.96-5.96,0.47c-2.27-0.55-4.52-1.19-6.79-1.77
		c-5.61-1.44-10.07-0.16-14.18,4.35c-7.71,8.45-17.46,11.12-28.59,7.98c-3.57-1.01-4.24-3.53-1.87-6.49c0.64-0.79,1.24-1.63,2-2.3
		c3.3-2.91,3.94-6.32,2.59-10.47c-1.36-4.21-0.22-7.98,2.84-11.22c2.83-3,6.18-5.27,9.79-7.16c1.72-0.9,3.36-1.91,4.83-3.17
		c8.96,2.95,16.43,8.32,23.24,14.64C131.2,24.79,135.55,29.61,138.54,35.49z"/>
	<path class="st1" d="M44.16,6.83c2.66,6.11,2.67,11.94-1.39,17.6c-1.58,2.21-1.74,4.92-1.02,7.63c0.68,2.56,0.93,5.2,0.96,7.85
		c0.04,2.56-1.08,4.39-3.75,4.74c-7.15,0.92-14.29,2.17-21.53,0.85c-3.43-0.63-6.74-1.54-9.43-3.93
		C15.85,25.61,27.8,13.93,44.16,6.83z"/>
</g>
</svg>
