<?xml version="1.0" encoding="utf-8"?>
<!-- Generator: Adobe Illustrator 26.0.2, SVG Export Plug-In . SVG Version: 6.00 Build 0)  -->
<svg version="1.1" id="Layer_1" xmlns="http://www.w3.org/2000/svg" xmlns:xlink="http://www.w3.org/1999/xlink" x="0px" y="0px"
	 viewBox="0 0 150 150" style="enable-background:new 0 0 150 150;" xml:space="preserve">
<style type="text/css">
	.st0{fill:#5D94BF;}
	.st1{fill:#4972A9;}
</style>
<g>
	<path class="st0" d="M6.13,104.2C0.15,92.08-0.86,79.25,0.58,66.07c2.2,0.16,4.07,1.22,5.98,2.18c6.91,3.46,11.39,2.65,16.66-3.02
		c1.59-1.71,3.11-3.49,4.71-5.19c3.24-3.47,7.28-4.24,11.76-3.33c1.49,0.3,2.97,0.71,4.44,1.12c19.94,5.64,39.03-1.87,49.06-19.84
		c3.61-6.47,8.54-8.88,15.58-7.78c1.31,0.2,2.66,0.24,3.92,0.61c7.29,2.1,14.09,1.42,20.23-3.33c3.6,4.61,7.32,9.16,9.17,14.85
		c-2.42,2.18-4.39,4.78-6.95,6.84c-13.65,10.98-27.19,22.1-40.88,33.02c-5.95,4.74-12.6,7.68-20.55,7.26
		c-6.76-0.36-13.28-2.07-19.95-2.89c-8.96-1.1-16.85,0.7-23.89,6.72C23.06,99.1,15.48,103.69,6.13,104.2z"/>
	<path class="st1" d="M6.13,104.2c9.35-0.5,16.93-5.09,23.74-10.91c7.04-6.02,14.93-7.82,23.89-6.72
		c6.67,0.82,13.19,2.53,19.95,2.89c7.95,0.42,14.6-2.52,20.55-7.26c13.7-10.92,27.23-22.04,40.88-33.02
		c2.56-2.06,4.54-4.67,6.95-6.84c2.82,3.5,3.81,7.78,5.05,11.93c2.11,7.05,3.08,14.27,2.82,21.64c-7.92,0.94-12.83,6.15-17.02,12.21
		c-2.54,3.68-4.74,7.59-7.14,11.37c-4.22,6.63-10.37,9.85-18.14,10.07c-2.95,0.08-5.93,0.26-8.85-0.05
		c-10.62-1.13-19.47,1.86-26.22,10.42c-2.18,2.76-5.34,3.9-8.76,4.53c-5.3,0.98-10.05-1.03-14.88-2.54
		c-4.47-1.39-8.85-3.21-13.56-3.52c-6.42-0.42-12.58,0.46-17.82,4.67C12.58,117.48,8.43,111.4,6.13,104.2z"/>
	<path class="st1" d="M132.92,27.48c-6.14,4.75-12.94,5.43-20.23,3.33c-1.26-0.36-2.61-0.4-3.92-0.61
		c-7.04-1.09-11.97,1.31-15.58,7.78C83.16,55.95,64.08,63.47,44.13,57.83c-1.47-0.42-2.95-0.82-4.44-1.12
		c-4.48-0.91-8.52-0.14-11.76,3.33c-1.6,1.71-3.12,3.48-4.71,5.19c-5.27,5.67-9.74,6.48-16.66,3.02c-1.91-0.96-3.78-2.02-5.98-2.18
		c1.05-11.86,5-22.65,12.02-32.29c9.75-0.55,19.25,0.37,28.57,3.66c5.85,2.06,10.52,0.13,14.24-4.8c1.78-2.35,3.47-4.77,5.15-7.2
		c5.63-8.14,13.13-13.44,22.93-15.47c4.33-0.89,8.75-0.37,13.06-1.26c2.35-0.49,4.62-1.01,5.63-3.57
		C114.44,9.81,124.75,17.19,132.92,27.48z"/>
	<path class="st0" d="M17.55,123.07c5.24-4.21,11.4-5.08,17.82-4.67c4.72,0.31,9.09,2.13,13.56,3.52c4.83,1.5,9.58,3.51,14.88,2.54
		c3.42-0.63,6.58-1.77,8.76-4.53c6.75-8.56,15.61-11.55,26.22-10.42c2.92,0.31,5.9,0.13,8.85,0.05c7.78-0.22,13.93-3.44,18.14-10.07
		c2.4-3.78,4.6-7.69,7.14-11.37c4.19-6.06,9.1-11.27,17.02-12.21c-0.34,13.93-3.96,26.9-11.42,38.73c-4.68-1.12-9.12,0-13.42,1.63
		c-7.05,2.67-13.19,6.91-18.7,11.94c-5.05,4.61-10.43,5.98-17.13,4.37c-15.55-3.76-27.52,4.12-39.16,12.74
		c-9.25-2.37-16.91-7.59-24.11-13.57C22.91,129.15,20.02,126.3,17.55,123.07z"/>
	<path class="st0" d="M102.18,5.13c-1.01,2.55-3.29,3.08-5.63,3.57c-4.31,0.89-8.73,0.37-13.06,1.26
		c-9.8,2.03-17.3,7.33-22.93,15.47c-1.68,2.42-3.37,4.84-5.15,7.2c-3.72,4.94-8.39,6.86-14.24,4.8c-9.32-3.28-18.82-4.21-28.57-3.66
		c4.69-8.09,11.18-14.56,18.79-19.78C53.4-1.11,77.08-3.86,102.18,5.13z"/>
	<path class="st1" d="M50.13,145.31c11.63-8.62,23.6-16.5,39.16-12.74c6.7,1.62,12.07,0.25,17.13-4.37
		c5.51-5.03,11.65-9.27,18.7-11.94c4.31-1.63,8.75-2.75,13.42-1.63c-7.8,13.1-18.96,22.45-32.71,28.72
		c-16.89,7.71-34.37,8.42-52.18,3.62C52.39,146.64,51.03,146.43,50.13,145.31z"/>
</g>
</svg>
