<?xml version="1.0" encoding="utf-8"?>
<!-- Generator: Adobe Illustrator 26.0.2, SVG Export Plug-In . SVG Version: 6.00 Build 0)  -->
<svg version="1.1" id="Layer_1" xmlns="http://www.w3.org/2000/svg" xmlns:xlink="http://www.w3.org/1999/xlink" x="0px" y="0px"
	 viewBox="0 0 150 64.11" style="enable-background:new 0 0 150 64.11;" xml:space="preserve">
<style type="text/css">
	.st0{fill:#CD5A4D;}
	.st1{fill:#020202;}
	.st2{fill:#010101;}
	.st3{fill:#E6E5E5;}
	.st4{fill:#CC594D;}
	.st5{fill:#FED365;}
	.st6{fill:#283942;}
	.st7{fill:#C05448;}
	.st8{fill:#F1B255;}
	.st9{fill:#C2E1F0;}
</style>
<g>
	<path class="st0" d="M149.95,31.8c-0.29,0.04-0.16,0.21-0.11,0.35c0.31,0.86,0.13,1.67-0.22,2.46c-0.99,2.22-2.54,4.04-4.24,5.73
		c-2.3,2.3-4.89,4.24-7.69,5.91c-0.22,0.13-0.47,0.21-0.71,0.31c-0.1-0.19-0.21-0.37-0.29-0.57c-3.69-8.94-3.54-17.81,0.56-26.59
		c3.47,1.94,6.49,4.44,9.17,7.37c0.13,0.14,0.17,0.47,0.49,0.25c0.15,0.24,0.3,0.48,0.46,0.72c-0.05,0.21-0.05,0.21,0.23,0.36
		c0.63,1,1.26,1.99,1.9,2.99c-0.01,0.04-0.03,0.09-0.02,0.13c0.02,0.07,0.07,0.06,0.09-0.01C149.7,31.4,149.82,31.6,149.95,31.8z"/>
	<path class="st1" d="M147.6,28.09c-0.28-0.15-0.28-0.15-0.23-0.36C147.45,27.85,147.52,27.97,147.6,28.09z"/>
	<path class="st2" d="M149.57,31.2c-0.03,0.07-0.07,0.07-0.09,0.01c-0.01-0.03,0.01-0.08,0.02-0.13
		C149.52,31.12,149.55,31.16,149.57,31.2z"/>
	<path class="st3" d="M131.84,16.51c1.55,0.81,3.15,1.51,4.65,2.41c0.26,0.16,0.51,0.32,0.77,0.48c-4.09,8.78-4.25,17.64-0.56,26.59
		c0.08,0.2,0.19,0.38,0.29,0.57c-1.96,1.23-4.07,2.14-6.19,3.03c-0.24,0.1-0.46,0.22-0.69,0.34c-1.97,0.61-3.91,1.33-5.91,1.85
		c-6.8,1.77-13.71,2.29-20.71,2.08c-9.16-0.27-18.25-1.18-27.29-2.59c-0.18-0.03-0.37-0.03-0.56-0.04
		c-2.18-0.39-4.36-0.77-6.54-1.17c-3.87-0.72-7.71-1.58-11.52-2.6c-0.65-0.23-1.29-0.47-1.94-0.7c0.01-2.31,0.02-4.62,0.03-6.93
		c0.02-0.85,0.05-1.71,0.07-2.56c3.75-0.08,7.47-0.44,11.14-1.2c1.78-0.37,3.55-0.77,5.11-1.76c1.32-0.84,1.33-1.8,0.04-2.69
		c-0.98-0.68-2.1-1.06-3.24-1.38c-3.99-1.14-8.09-1.6-12.21-1.9c-0.27-0.02-0.57,0.07-0.8-0.17c0.08-0.85,0.09-1.71,0.03-2.56
		c0.04-2.71,0.08-5.42,0.12-8.13c0.64-0.22,1.29-0.45,1.93-0.67c3.52-0.86,7.05-1.64,10.62-2.24c2.51-0.42,5.02-0.81,7.52-1.21
		c3.39-0.37,6.77-0.78,10.17-1.09c7.93-0.73,15.88-1.11,23.84-0.72c7.46,0.37,14.67,1.89,21.55,4.88
		C131.65,16.47,131.75,16.48,131.84,16.51z M117.29,43.91c6.23-3.99,8.01-12.16,4.01-18.42c-3.91-6.12-12.17-7.89-18.34-3.93
		c-6.11,3.92-7.9,12.15-3.97,18.28C102.96,46.01,111.15,47.84,117.29,43.91z"/>
	<path class="st4" d="M57.57,47.46c3.8,1.02,7.65,1.87,11.52,2.6c2.18,0.41,4.36,0.78,6.54,1.17c-0.23,1.97-1.37,3.43-2.7,4.77
		c-2.1,2.11-4.65,3.57-7.21,5.05c-4.79,2.77-10.04,3.02-15.34,3.06c-5.29,0.03-10.56-0.28-15.8-1.05c-1-0.15-2.01-0.33-2.97-0.63
		c-1.31-0.42-1.78-1.28-1.46-2.63c0.64-2.75,3.46-5.44,6.24-5.84c4.26-0.62,8.55-0.59,12.84-0.63c0.57-0.01,1.13-0.03,1.7,0.02
		c0.83,0.07,1.46-0.28,2.02-0.82C54.61,50.94,55.98,49.1,57.57,47.46z"/>
	<path class="st4" d="M76.01,13.36c-2.51,0.4-5.02,0.79-7.52,1.21c-3.57,0.6-7.11,1.38-10.62,2.24c-1.37-1.59-2.75-3.17-4.11-4.76
		c-0.75-0.88-1.64-1.24-2.84-1.26c-4.57-0.04-9.15-0.18-13.69-0.83c-2.98-0.43-5.82-3.05-6.49-6.02c-0.3-1.32,0.19-2.19,1.5-2.61
		c1.1-0.35,2.25-0.51,3.4-0.63C43-0.1,50.36-0.28,57.74,0.5c3.67,0.39,6.88,1.91,9.98,3.74c2.36,1.4,4.59,2.98,6.36,5.11
		C75.05,10.52,75.88,11.78,76.01,13.36z"/>
	<path class="st5" d="M44.97,45.27c-4.94-0.03-9.84-0.54-14.72-1.25c-6.71-0.98-13.34-2.32-19.78-4.49
		c-2.66-0.9-5.27-1.92-7.63-3.49c-0.69-0.46-1.32-0.98-1.88-1.59c-1.25-1.37-1.29-2.9-0.08-4.32c1.11-1.3,2.58-2.13,4.09-2.84
		c5.83-2.73,12.07-4.07,18.36-5.19c7.08-1.26,14.22-2.02,21.42-2.03c0.14,0,0.28,0.01,0.42,0.02c0.14,0.85,0.06,1.7,0.03,2.55
		c-0.22,0.11-0.45,0.11-0.69,0.1c-2.26-0.06-4.52,0.04-6.77,0.23c-5.43,0.47-10.79,1.32-15.86,3.47c-1.74,0.74-3.38,1.67-4.68,3.08
		c-1.08,1.17-1.62,2.53-1.06,4.15c0.42,1.21,1.31,2.04,2.28,2.79c2.74,2.12,5.96,3.17,9.24,4.05c3.53,0.94,7.13,1.51,10.77,1.8
		c2.18,0.17,4.36,0.38,6.55,0.27C44.98,43.47,44.97,44.37,44.97,45.27z"/>
	<path class="st4" d="M45.2,22.64c0.03-0.85,0.11-1.7-0.03-2.55c0.19-0.76,0.1-1.54,0.11-2.32c0.03-1.91,1.09-2.98,2.99-2.97
		c1.51,0.01,3.02,0.03,4.53,0.05c1.94,0.02,2.76,0.72,3.13,2.64c-0.04,2.71-0.08,5.42-0.12,8.13c-2.59-0.17-5.19-0.21-7.78-0.18
		c-0.92,0.01-1.87-0.12-2.77,0.18C45.15,24.62,45.35,23.63,45.2,22.64z"/>
	<path class="st4" d="M44.97,45.27c0.01-0.9,0.01-1.8,0.02-2.7c0.04-0.87,0.09-1.74,0.13-2.61c0.22-0.14,0.47-0.08,0.69-0.06
		c2.54,0.14,5.08,0.17,7.63,0.12c0.74-0.02,1.51,0.19,2.23-0.17c-0.01,2.31-0.02,4.62-0.03,6.93c-0.4,1.89-1.29,2.6-3.25,2.58
		c-1.48-0.02-2.96-0.03-4.44-0.05c-1.95-0.03-2.97-1.08-2.96-3.04C44.99,45.92,44.97,45.6,44.97,45.27z"/>
	<path class="st6" d="M117.29,43.91c-6.14,3.93-14.34,2.11-18.3-4.08c-3.93-6.13-2.14-14.35,3.97-18.28
		c6.17-3.96,14.43-2.19,18.34,3.93C125.3,31.74,123.53,39.91,117.29,43.91z M105.92,25.98c-3.72,2.34-4.84,7.26-2.49,10.98
		c2.33,3.69,7.25,4.81,10.92,2.5c3.78-2.37,4.91-7.26,2.55-11.01C114.58,24.74,109.66,23.63,105.92,25.98z"/>
	<path class="st0" d="M55.78,28.18c0.23,0.23,0.53,0.15,0.8,0.17c4.12,0.31,8.22,0.76,12.21,1.9c1.13,0.32,2.25,0.7,3.24,1.38
		c1.29,0.89,1.28,1.85-0.04,2.69c-1.56,0.99-3.34,1.39-5.11,1.76c-3.67,0.76-7.39,1.12-11.14,1.2c-2.44,0.18-4.88,0.12-7.32,0.09
		c-1.1-0.02-2.19-0.18-3.29-0.09c-0.16-0.03-0.32-0.07-0.48-0.08c-4.25-0.33-8.5-0.72-12.61-1.96c-1.28-0.39-2.58-0.78-3.61-1.7
		c-0.69-0.62-0.71-1.19-0.11-1.9c0.22-0.26,0.49-0.45,0.77-0.61c1.37-0.76,2.87-1.17,4.39-1.51c3.67-0.81,7.4-1.15,11.15-1.32
		c0.23-0.01,0.48,0.06,0.61-0.22c0.25,0.26,0.57,0.17,0.86,0.16c2.46-0.04,4.92-0.08,7.38,0.05C54.24,28.23,55.02,28.4,55.78,28.18z
		"/>
	<path class="st7" d="M55.78,28.18c-0.77,0.22-1.54,0.05-2.3,0.01c-2.46-0.13-4.92-0.09-7.38-0.05c-0.3,0-0.61,0.09-0.86-0.16
		c0.01-0.79,0.02-1.57,0.02-2.36c0.91-0.3,1.86-0.17,2.77-0.18c2.59-0.03,5.19,0.01,7.78,0.18C55.87,26.47,55.86,27.32,55.78,28.18z
		"/>
	<path class="st7" d="M45.12,37.27c1.1-0.09,2.2,0.07,3.29,0.09c2.44,0.04,4.88,0.1,7.32-0.09c-0.02,0.85-0.05,1.71-0.07,2.56
		c-0.72,0.36-1.49,0.16-2.23,0.17c-2.54,0.06-5.08,0.02-7.63-0.12c-0.23-0.01-0.47-0.08-0.69,0.06
		C45.12,39.06,45.12,38.17,45.12,37.27z"/>
	<path class="st8" d="M45.12,37.27c0,0.89,0,1.79,0,2.68c-0.04,0.87-0.09,1.74-0.13,2.61c-2.19,0.11-4.37-0.09-6.55-0.27
		c-3.64-0.29-7.24-0.86-10.77-1.8c-3.28-0.88-6.5-1.93-9.24-4.05c-0.97-0.75-1.86-1.58-2.28-2.79c-0.56-1.61-0.03-2.98,1.06-4.15
		c1.3-1.4,2.94-2.34,4.68-3.08c5.07-2.14,10.42-3,15.86-3.47c2.25-0.19,4.51-0.29,6.77-0.23c0.24,0.01,0.47,0.01,0.69-0.1
		c0.15,0.99-0.05,1.99,0.06,2.98c-0.01,0.79-0.01,1.57-0.02,2.36c-0.13,0.28-0.39,0.21-0.61,0.22c-3.75,0.17-7.48,0.51-11.15,1.32
		c-1.52,0.33-3.02,0.74-4.39,1.51c-0.29,0.16-0.55,0.35-0.77,0.61c-0.6,0.71-0.58,1.28,0.11,1.9c1.03,0.93,2.33,1.32,3.61,1.7
		c4.11,1.24,8.36,1.63,12.61,1.96C44.8,37.2,44.96,37.25,45.12,37.27z"/>
	<path class="st9" d="M105.92,25.98c3.73-2.35,8.66-1.24,10.98,2.46c2.36,3.76,1.22,8.64-2.55,11.01c-3.68,2.31-8.6,1.19-10.92-2.5
		C101.09,33.24,102.2,28.32,105.92,25.98z"/>
</g>
</svg>
